<?xml version="1.0" encoding="UTF-8" standalone="no"?>
<svg
   xmlns:dc="http://purl.org/dc/elements/1.1/"
   xmlns:cc="http://creativecommons.org/ns#"
   xmlns:rdf="http://www.w3.org/1999/02/22-rdf-syntax-ns#"
   xmlns:svg="http://www.w3.org/2000/svg"
   xmlns="http://www.w3.org/2000/svg"
   xmlns:sodipodi="http://sodipodi.sourceforge.net/DTD/sodipodi-0.dtd"
   xmlns:inkscape="http://www.inkscape.org/namespaces/inkscape"
   version="1.1"
   id="svg2"
   xml:space="preserve"
   width="336"
   height="192"
   viewBox="0 0 336 192"
   sodipodi:docname="Logo.ai"><metadata
     id="metadata8"><rdf:RDF><cc:Work
         rdf:about=""><dc:format>image/svg+xml</dc:format><dc:type
           rdf:resource="http://purl.org/dc/dcmitype/StillImage" /></cc:Work></rdf:RDF></metadata><defs
     id="defs6"><clipPath
       clipPathUnits="userSpaceOnUse"
       id="clipPath18"><path
         d="M 0,144 H 252 V 0 H 0 Z"
         id="path16" /></clipPath></defs><sodipodi:namedview
     pagecolor="#ffffff"
     bordercolor="#666666"
     borderopacity="1"
     objecttolerance="10"
     gridtolerance="10"
     guidetolerance="10"
     inkscape:pageopacity="0"
     inkscape:pageshadow="2"
     inkscape:window-width="640"
     inkscape:window-height="480"
     id="namedview4" /><g
     id="g10"
     inkscape:groupmode="layer"
     inkscape:label="Logo"
     transform="matrix(1.3333333,0,0,-1.3333333,0,192)"><g
       id="g12"><g
         id="g14"
         clip-path="url(#clipPath18)"><g
           id="g20"
           transform="translate(169.2266,88.2368)"><path
             d="m 0,0 c 0,-26.262 -21.29,-47.552 -47.552,-47.552 -26.263,0 -47.553,21.29 -47.553,47.552 0,26.263 21.29,47.553 47.553,47.553 C -21.29,47.553 0,26.263 0,0"
             style="fill:#ffffff;fill-opacity:1;fill-rule:nonzero;stroke:none"
             id="path22" /></g><g
           id="g24"
           transform="translate(121.6743,135.02)"><path
             d="m 0,0 c -25.796,0 -46.783,-20.987 -46.783,-46.783 0,-25.797 20.987,-46.783 46.783,-46.783 25.796,0 46.783,20.986 46.783,46.783 C 46.783,-20.987 25.796,0 0,0 m 0,-95.106 c -26.646,0 -48.323,21.678 -48.323,48.323 0,26.645 21.677,48.323 48.323,48.323 26.645,0 48.322,-21.678 48.322,-48.323 0,-26.645 -21.677,-48.323 -48.322,-48.323"
             style="fill:#ec1e27;fill-opacity:1;fill-rule:nonzero;stroke:none"
             id="path26" /></g><g
           id="g28"
           transform="translate(166.0908,88.2368)"><path
             d="m 0,0 c 0,-24.531 -19.886,-44.417 -44.417,-44.417 -24.53,0 -44.416,19.886 -44.416,44.417 0,24.531 19.886,44.417 44.416,44.417 C -19.886,44.417 0,24.531 0,0"
             style="fill:#ec1e27;fill-opacity:1;fill-rule:nonzero;stroke:none"
             id="path30" /></g><g
           id="g32"
           transform="translate(152.4043,88.2368)"><path
             d="m 0,0 c 0,-16.972 -13.759,-30.73 -30.73,-30.73 -16.972,0 -30.73,13.758 -30.73,30.73 0,16.972 13.758,30.73 30.73,30.73 C -13.759,30.73 0,16.972 0,0"
             style="fill:#ffffff;fill-opacity:1;fill-rule:nonzero;stroke:none"
             id="path34" /></g></g></g><text
       transform="matrix(0.44909929,0.89348186,0.89348186,-0.44909929,89.9604,100.0322)"
       style="font-variant:normal;font-weight:bold;font-stretch:normal;font-size:13.2507px;font-family:'Myriad Pro';-inkscape-font-specification:MyriadPro-Bold;writing-mode:lr-tb;fill:#ffffff;fill-opacity:1;fill-rule:nonzero;stroke:none"
       id="text38"><tspan
         x="0"
         y="0"
         id="tspan36">2</tspan></text><text
       transform="matrix(0.62143624,0.78346474,0.78346474,-0.62143624,93.0288,106.2344)"
       style="font-variant:normal;font-weight:bold;font-stretch:normal;font-size:13.2508px;font-family:'Myriad Pro';-inkscape-font-specification:MyriadPro-Bold;writing-mode:lr-tb;fill:#ffffff;fill-opacity:1;fill-rule:nonzero;stroke:none"
       id="text42"><tspan
         x="0"
         y="0"
         id="tspan40">1</tspan></text><text
       transform="matrix(0.76745616,0.64110143,0.64110143,-0.76745616,97.3076,111.6973)"
       style="font-variant:normal;font-weight:bold;font-stretch:normal;font-size:13.2508px;font-family:'Myriad Pro';-inkscape-font-specification:MyriadPro-Bold;writing-mode:lr-tb;fill:#ffffff;fill-opacity:1;fill-rule:nonzero;stroke:none"
       id="text46"><tspan
         x="0"
         y="0"
         id="tspan44">5</tspan></text><text
       transform="matrix(0.8965288,0.44298546,0.44298546,-0.8965288,104.8853,117.4561)"
       style="font-variant:normal;font-weight:bold;font-stretch:normal;font-size:13.2508px;font-family:'Myriad Pro';-inkscape-font-specification:MyriadPro-Bold;writing-mode:lr-tb;fill:#ffffff;fill-opacity:1;fill-rule:nonzero;stroke:none"
       id="text50"><tspan
         x="0"
         y="0"
         id="tspan48">-</tspan></text><text
       transform="matrix(0.9757608,0.21883981,0.21883981,-0.9757608,110.6953,120.2427)"
       style="font-variant:normal;font-weight:bold;font-stretch:normal;font-size:13.2508px;font-family:'Myriad Pro';-inkscape-font-specification:MyriadPro-Bold;writing-mode:lr-tb;fill:#ffffff;fill-opacity:1;fill-rule:nonzero;stroke:none"
       id="text54"><tspan
         x="0"
         y="0"
         id="tspan52">3</tspan></text><text
       transform="matrix(0.99986179,0.01662537,0.01662537,-0.99986179,117.4272,121.7959)"
       style="font-variant:normal;font-weight:bold;font-stretch:normal;font-size:13.2508px;font-family:'Myriad Pro';-inkscape-font-specification:MyriadPro-Bold;writing-mode:lr-tb;fill:#ffffff;fill-opacity:1;fill-rule:nonzero;stroke:none"
       id="text58"><tspan
         x="0"
         y="0"
         id="tspan56">1</tspan></text><text
       transform="matrix(0.98242723,-0.18664601,-0.18664601,-0.98242723,124.375,121.9561)"
       style="font-variant:normal;font-weight:bold;font-stretch:normal;font-size:13.2508px;font-family:'Myriad Pro';-inkscape-font-specification:MyriadPro-Bold;writing-mode:lr-tb;fill:#ffffff;fill-opacity:1;fill-rule:nonzero;stroke:none"
       id="text62"><tspan
         x="0"
         y="0"
         id="tspan60">5</tspan></text><text
       transform="matrix(0.9105628,-0.41337077,-0.41337077,-0.9105628,133.6157,119.7524)"
       style="font-variant:normal;font-weight:bold;font-stretch:normal;font-size:13.2508px;font-family:'Myriad Pro';-inkscape-font-specification:MyriadPro-Bold;writing-mode:lr-tb;fill:#ffffff;fill-opacity:1;fill-rule:nonzero;stroke:none"
       id="text66"><tspan
         x="0"
         y="0"
         id="tspan64">-</tspan></text><text
       transform="matrix(0.78811773,-0.61552453,-0.61552453,-0.78811773,139.4556,117.0156)"
       style="font-variant:normal;font-weight:bold;font-stretch:normal;font-size:13.2508px;font-family:'Myriad Pro';-inkscape-font-specification:MyriadPro-Bold;writing-mode:lr-tb;fill:#ffffff;fill-opacity:1;fill-rule:nonzero;stroke:none"
       id="text70"><tspan
         x="0"
         y="0"
         id="tspan68">9</tspan></text><text
       transform="matrix(0.64682173,-0.76264123,-0.76264123,-0.64682173,144.9507,112.7778)"
       style="font-variant:normal;font-weight:bold;font-stretch:normal;font-size:13.2508px;font-family:'Myriad Pro';-inkscape-font-specification:MyriadPro-Bold;writing-mode:lr-tb;fill:#ffffff;fill-opacity:1;fill-rule:nonzero;stroke:none"
       id="text74"><tspan
         x="0"
         y="0"
         id="tspan72">0</tspan></text><text
       transform="matrix(0.47800326,-0.87835806,-0.87835806,-0.47800326,149.4707,107.5166)"
       style="font-variant:normal;font-weight:bold;font-stretch:normal;font-size:13.2507px;font-family:'Myriad Pro';-inkscape-font-specification:MyriadPro-Bold;writing-mode:lr-tb;fill:#ffffff;fill-opacity:1;fill-rule:nonzero;stroke:none"
       id="text78"><tspan
         x="0"
         y="0"
         id="tspan76">0</tspan></text><text
       transform="matrix(0.28811839,-0.9575948,-0.9575948,-0.28811839,152.8179,101.4604)"
       style="font-variant:normal;font-weight:bold;font-stretch:normal;font-size:13.2508px;font-family:'Myriad Pro';-inkscape-font-specification:MyriadPro-Bold;writing-mode:lr-tb;fill:#ffffff;fill-opacity:1;fill-rule:nonzero;stroke:none"
       id="text82"><tspan
         x="0"
         y="0"
         id="tspan80">5</tspan></text><text
       transform="matrix(1,0,0,-1,106.6016,75.8442)"
       style="font-variant:normal;font-weight:bold;font-stretch:normal;font-size:54.3094px;font-family:'Myriad Pro';-inkscape-font-specification:MyriadPro-Bold;writing-mode:lr-tb;fill:#ec1e27;fill-opacity:1;fill-rule:nonzero;stroke:none"
       id="text86"><tspan
         x="0"
         y="0"
         id="tspan84">5</tspan></text><text
       transform="matrix(1,0,0,-1,106.8682,63.4839)"
       style="font-variant:normal;font-weight:bold;font-stretch:normal;font-size:11.9488px;font-family:'Myriad Pro';-inkscape-font-specification:MyriadPro-Bold;writing-mode:lr-tb;fill:#ec1e27;fill-opacity:1;fill-rule:nonzero;stroke:none"
       id="text90"><tspan
         x="0 8.1490812 16.298162 23.156775"
         y="0"
         sodipodi:role="line"
         id="tspan88">GUYS</tspan></text><text
       transform="matrix(0.60965569,-0.79266635,-0.79266635,-0.60965569,86.6683,66.1454)"
       style="font-variant:normal;font-weight:bold;font-stretch:normal;font-size:13.2506px;font-family:'Myriad Pro';-inkscape-font-specification:MyriadPro-Bold;writing-mode:lr-tb;fill:#ffffff;fill-opacity:1;fill-rule:nonzero;stroke:none"
       id="text94"><tspan
         x="0"
         y="0"
         id="tspan92">W</tspan></text><text
       transform="matrix(0.8298786,-0.55794401,-0.55794401,-0.8298786,95.3888,55.6987)"
       style="font-variant:normal;font-weight:bold;font-stretch:normal;font-size:13.2506px;font-family:'Myriad Pro';-inkscape-font-specification:MyriadPro-Bold;writing-mode:lr-tb;fill:#ffffff;fill-opacity:1;fill-rule:nonzero;stroke:none"
       id="text98"><tspan
         x="0"
         y="0"
         id="tspan96">H</tspan></text><text
       transform="matrix(0.94733064,-0.32025718,-0.32025718,-0.94733064,104.3549,49.9042)"
       style="font-variant:normal;font-weight:bold;font-stretch:normal;font-size:13.2506px;font-family:'Myriad Pro';-inkscape-font-specification:MyriadPro-Bold;writing-mode:lr-tb;fill:#ffffff;fill-opacity:1;fill-rule:nonzero;stroke:none"
       id="text102"><tspan
         x="0"
         y="0"
         id="tspan100">O</tspan></text><text
       transform="matrix(0.99458649,-0.10391202,-0.10391202,-0.99458649,114.6441,46.7394)"
       style="font-variant:normal;font-weight:bold;font-stretch:normal;font-size:13.2506px;font-family:'Myriad Pro';-inkscape-font-specification:MyriadPro-Bold;writing-mode:lr-tb;fill:#ffffff;fill-opacity:1;fill-rule:nonzero;stroke:none"
       id="text106"><tspan
         x="0"
         y="0"
         id="tspan104">L</tspan></text><text
       transform="matrix(0.99776508,0.06681954,0.06681954,-0.99776508,122.3523,46.0246)"
       style="font-variant:normal;font-weight:bold;font-stretch:normal;font-size:13.2506px;font-family:'Myriad Pro';-inkscape-font-specification:MyriadPro-Bold;writing-mode:lr-tb;fill:#ffffff;fill-opacity:1;fill-rule:nonzero;stroke:none"
       id="text110"><tspan
         x="0"
         y="0"
         id="tspan108">E</tspan></text><text
       transform="matrix(0.96791672,0.2512712,0.2512712,-0.96791672,130.476,46.648)"
       style="font-variant:normal;font-weight:bold;font-stretch:normal;font-size:13.2506px;font-family:'Myriad Pro';-inkscape-font-specification:MyriadPro-Bold;writing-mode:lr-tb;fill:#ffffff;fill-opacity:1;fill-rule:nonzero;stroke:none"
       id="text114"><tspan
         x="0"
         y="0"
         id="tspan112">S</tspan></text><text
       transform="matrix(0.87935201,0.47617228,0.47617228,-0.87935201,138.7465,48.8516)"
       style="font-variant:normal;font-weight:bold;font-stretch:normal;font-size:13.2507px;font-family:'Myriad Pro';-inkscape-font-specification:MyriadPro-Bold;writing-mode:lr-tb;fill:#ffffff;fill-opacity:1;fill-rule:nonzero;stroke:none"
       id="text118"><tspan
         x="0"
         y="0"
         id="tspan116">A</tspan></text><text
       transform="matrix(0.72626534,0.68741447,0.68741447,-0.72626534,147.5439,53.9666)"
       style="font-variant:normal;font-weight:bold;font-stretch:normal;font-size:13.2507px;font-family:'Myriad Pro';-inkscape-font-specification:MyriadPro-Bold;writing-mode:lr-tb;fill:#ffffff;fill-opacity:1;fill-rule:nonzero;stroke:none"
       id="text122"><tspan
         x="0"
         y="0"
         id="tspan120">L</tspan></text><text
       transform="matrix(0.53454855,0.84513777,0.84513777,-0.53454855,153.3975,59.7178)"
       style="font-variant:normal;font-weight:bold;font-stretch:normal;font-size:13.2506px;font-family:'Myriad Pro';-inkscape-font-specification:MyriadPro-Bold;writing-mode:lr-tb;fill:#ffffff;fill-opacity:1;fill-rule:nonzero;stroke:none"
       id="text126"><tspan
         x="0"
         y="0"
         id="tspan124">E</tspan></text><text
       transform="matrix(1,0,0,-1,87.04,20.6343)"
       style="font-variant:normal;font-weight:bold;font-stretch:normal;font-size:15.3679px;font-family:'Myriad Pro';-inkscape-font-specification:MyriadPro-Bold;writing-mode:lr-tb;fill:#ec1e27;fill-opacity:1;fill-rule:nonzero;stroke:none"
       id="text132"><tspan
         x="0 7.1768093 16.044088 25.234093 33.348343 40.110218 46.872093 55.739372 58.843689"
         y="0"
         sodipodi:role="line"
         id="tspan128">Tobacco &amp;</tspan><tspan
         x="-37.866505 -27.29339 -19.17914 -10.17355 -2.0592985 3.6114564 11.725708 15.95188 19.056196 32.102005 40.216259 45.933117 52.86404 61.869629 69.983879 78.989471 88.148735 92.359543 99.029213"
         y="14.338251"
         sodipodi:role="line"
         id="tspan130">General Merchandise</tspan></text></g></svg>
